<svg width="1080" height="1080" viewBox="0 0 1080 1080" fill="none" xmlns="http://www.w3.org/2000/svg">
<g clip-path="url(#clip0_9_2)">
<g clip-path="url(#clip1_9_2)">
<path d="M535.171 278.813C525.285 335.075 493.019 369.631 462.087 403.252C434.408 433.001 408.41 461.175 405.342 499.926C399.469 569.289 392.16 646.819 375.23 741.836C342.622 927.411 301.66 1076.67 283.244 1073.67C264.828 1070.67 277.153 918.012 310.08 730.622C316.697 692.962 328.649 651.562 340.629 611.337C358.278 550.825 373.584 498.322 368.331 466.995C365.596 450.612 357.497 432.818 348.436 412.516C328.976 368.871 304.384 314.502 317.487 241.264C333.114 152.333 372.5 74.5924 418.11 42.6151C435.181 30.647 451.43 26.0183 467.044 28.9958C525.734 38.3731 556.989 153.316 535.171 278.813Z" fill="#2F877C"/>
</g>
<rect x="439.665" y="113.201" width="616.78" height="616.78" rx="157.5" transform="rotate(45 439.665 113.201)" stroke="#E3A0E9" stroke-opacity="0.75" stroke-width="5"/>
<rect x="136.167" y="596" width="192.57" height="192.57" rx="62" transform="rotate(45 136.167 596)" fill="url(#paint0_linear_9_2)"/>
<path d="M247.463 1005.5C235.43 1005.5 225.93 1001.7 218.963 994.1C211.996 987.133 208.513 977.633 208.513 965.6C208.513 944.7 219.28 915.25 240.813 877.25C262.346 839.883 290.846 794.917 326.313 742.35C361.146 689.783 399.146 631.833 440.313 568.5C474.513 515.933 508.08 464.317 541.013 413.65C573.946 362.35 605.296 316.117 635.063 274.95C664.83 233.783 692.063 201.167 716.763 177.1C741.463 152.4 762.68 140.05 780.413 140.05C801.313 140.05 811.763 152.717 811.763 178.05C811.763 198.317 805.113 221.75 791.813 248.35C779.146 274.95 762.046 303.133 740.513 332.9C718.98 362.033 694.913 391.167 668.313 420.3C641.713 448.8 614.48 475.717 586.613 501.05C559.38 526.383 533.413 548.233 508.713 566.6C484.646 584.967 463.746 598.267 446.013 606.5C441.58 608.4 439.046 607.45 438.413 603.65C438.413 599.217 440.63 596.05 445.063 594.15C461.53 586.55 481.163 573.883 503.963 556.15C527.396 537.783 552.096 516.25 578.063 491.55C604.663 466.217 630.63 439.3 655.963 410.8C681.93 382.3 705.363 353.8 726.263 325.3C747.163 296.167 763.946 268.617 776.613 242.65C789.28 216.05 795.613 192.933 795.613 173.3C795.613 166.333 794.03 160.633 790.863 156.2C787.696 151.133 783.58 148.6 778.513 148.6C768.38 148.6 753.813 160.317 734.813 183.75C716.446 207.183 694.28 239.483 668.313 280.65C642.346 321.183 612.896 367.733 579.963 420.3C547.663 472.867 512.196 527.967 473.563 585.6C445.063 628.033 416.563 670.783 388.063 713.85C359.563 757.55 333.596 798.083 310.163 835.45C286.096 872.817 266.78 904.167 252.213 929.5C237.646 955.467 230.363 971.933 230.363 978.9C230.363 985.233 232.58 989.667 237.013 992.2C240.813 994.733 245.246 996 250.313 996C261.713 996 276.28 986.5 294.013 967.5C311.746 948.5 329.796 922.533 348.163 889.6C365.896 857.3 381.096 820.567 393.763 779.4C405.796 738.233 411.813 695.483 411.813 651.15C411.813 644.183 413.713 639.75 417.513 637.85C420.68 635.95 422.263 637.533 422.263 642.6C422.263 689.467 416.88 734.433 406.113 777.5C395.346 821.2 381.413 860.15 364.313 894.35C346.58 928.55 327.58 955.467 307.313 975.1C286.413 995.367 266.463 1005.5 247.463 1005.5ZM503.013 659.7C480.846 659.7 462.48 655.9 447.913 648.3C433.98 640.067 422.896 630.25 414.663 618.85C406.43 607.45 400.73 596.05 397.563 584.65C394.396 572.617 392.813 562.483 392.813 554.25C392.813 546.017 395.346 539.367 400.413 534.3C404.846 528.6 410.23 525.75 416.563 525.75C424.796 525.75 430.18 528.283 432.713 533.35C435.246 538.417 436.513 542.85 436.513 546.65C436.513 555.517 433.03 563.433 426.063 570.4C418.463 577.367 414.03 581.483 412.763 582.75C412.763 582.75 414.03 586.233 416.563 593.2C418.463 600.167 422.58 608.083 428.913 616.95C435.246 625.817 444.113 633.733 455.513 640.7C467.546 647.667 483.38 651.15 503.013 651.15C523.28 651.15 541.33 647.667 557.163 640.7C573.63 633.1 587.563 624.55 598.963 615.05C610.996 604.917 620.496 595.417 627.463 586.55C635.063 577.683 640.13 571.983 642.663 569.45L651.213 575.15C649.313 577.683 644.563 583.383 636.963 592.25C629.363 601.117 619.23 610.933 606.563 621.7C593.896 631.833 578.696 640.7 560.963 648.3C543.863 655.9 524.546 659.7 503.013 659.7Z" fill="#A4DAF9"/>
</g>
<defs>
<linearGradient id="paint0_linear_9_2" x1="187.668" y1="595.411" x2="270.399" y2="791.28" gradientUnits="userSpaceOnUse">
<stop stop-color="#4BA69B"/>
<stop offset="1" stop-color="#1D403C"/>
</linearGradient>
<clipPath id="clip0_9_2">
<rect width="1080" height="1080" fill="white"/>
</clipPath>
<clipPath id="clip1_9_2">
<rect width="833.924" height="833.924" fill="white" transform="translate(-203.958 437.766) rotate(-35.034)"/>
</clipPath>
</defs>
</svg>
