<svg width="1636" height="1636" viewBox="0 0 1636 1636" fill="none" xmlns="http://www.w3.org/2000/svg">
<g clip-path="url(#clip0_36_2)">
<g clip-path="url(#clip1_36_2)">
<path d="M818 1593.25C1246.71 1593.25 1594.25 1245.71 1594.25 817C1594.25 388.289 1246.71 40.7504 818 40.7505C389.289 40.7505 41.7505 388.289 41.7505 817C41.7505 1245.71 389.289 1593.25 818 1593.25Z" fill="#2A2A2A" fill-opacity="0.83"/>
<path d="M817.994 -0.994108C366.95 -0.994092 1.25559e-05 365.957 2.79892e-05 817.003C4.34226e-05 1268.05 366.95 1635 817.994 1635C1269.04 1635 1635.99 1268.04 1635.99 817.003C1635.99 365.963 1269.04 -0.994123 817.994 -0.994108ZM817.994 1549.98C413.835 1549.98 85.0182 1221.17 85.0182 817.003C85.0182 412.836 413.835 84.0244 817.994 84.0244C1222.15 84.0244 1550.97 412.836 1550.97 817.003C1550.97 1221.17 1222.16 1549.98 817.994 1549.98Z" fill="url(#paint0_linear_36_2)"/>
<path d="M817.994 266.559C514.473 266.559 267.546 513.487 267.546 817.008C267.546 1120.53 514.473 1367.46 817.994 1367.46C953.025 1367.46 1082.9 1318.08 1183.7 1228.41C1201.25 1212.8 1202.81 1185.93 1187.21 1168.4C1171.61 1150.86 1144.75 1149.28 1127.2 1164.89C1041.98 1240.69 932.168 1282.44 817.988 1282.44C561.352 1282.44 352.559 1073.65 352.559 817.008C352.559 560.371 561.352 351.577 817.988 351.577C1074.62 351.577 1283.42 560.366 1283.42 817.008C1283.42 884.66 1269.24 949.875 1241.27 1010.83C1231.48 1032.17 1240.84 1057.41 1262.18 1067.19C1283.52 1076.99 1308.76 1067.62 1318.54 1046.28C1351.64 974.117 1368.43 896.977 1368.43 817.003C1368.45 513.487 1121.51 266.559 817.994 266.559Z" fill="url(#paint1_linear_36_2)"/>
</g>
<mask id="mask0_36_2" style="mask-type:luminance" maskUnits="userSpaceOnUse" x="426" y="303" width="1049" height="1049">
<path d="M1475 303L426 303L426 1352L1475 1352L1475 303Z" fill="white"/>
</mask>
<g mask="url(#mask0_36_2)">
<mask id="mask1_36_2" style="mask-type:luminance" maskUnits="userSpaceOnUse" x="227" y="263" width="1130" height="1129">
<path d="M891.123 263.217L227.896 728.2L692.88 1391.43L1356.11 926.444L891.123 263.217Z" fill="white"/>
</mask>
<g mask="url(#mask1_36_2)">
<path d="M945.81 573.81C936.207 628.457 904.868 662.021 874.823 694.677C847.939 723.572 822.687 750.938 819.707 788.576C814.003 855.948 806.904 931.253 790.46 1023.54C758.788 1203.79 719.001 1348.77 701.114 1345.85C683.226 1342.94 695.198 1194.66 727.18 1012.65C733.607 976.071 745.216 935.86 756.852 896.789C773.994 838.014 788.861 787.018 783.759 756.59C781.102 740.678 773.236 723.394 764.435 703.675C745.533 661.283 721.647 608.475 734.374 537.339C749.552 450.96 787.808 375.451 832.109 344.392C848.69 332.767 864.472 328.271 879.638 331.163C936.643 340.272 967.001 451.915 945.81 573.81Z" fill="#2F877C"/>
</g>
<path d="M1168.48 728.39L961.218 521.124C901.476 461.382 804.615 461.382 744.873 521.124L537.607 728.39C477.865 788.132 477.865 884.993 537.607 944.735L744.873 1152C804.615 1211.74 901.476 1211.74 961.218 1152L1168.48 944.735C1228.23 884.993 1228.23 788.132 1168.48 728.39Z" stroke="#E3A0E9" stroke-opacity="0.75" stroke-width="5"/>
<path d="M647.936 971.569L600.841 924.475C577.324 900.957 539.194 900.957 515.677 924.475L468.582 971.569C445.064 995.087 445.064 1033.22 468.582 1056.73L515.677 1103.83C539.194 1127.35 577.323 1127.35 600.841 1103.83L647.936 1056.73C671.453 1033.22 671.453 995.087 647.936 971.569Z" fill="url(#paint2_linear_36_2)"/>
<path d="M666.36 1279.64C654.673 1279.64 645.445 1275.95 638.678 1268.57C631.911 1261.8 628.528 1252.57 628.528 1240.88C628.528 1220.58 638.986 1191.98 659.901 1155.07C680.816 1118.78 708.498 1075.1 742.947 1024.04C776.78 972.984 813.689 916.697 853.675 855.182C886.893 804.124 919.497 753.989 951.484 704.777C983.472 654.949 1013.92 610.043 1042.83 570.058C1071.75 530.073 1098.2 498.393 1122.19 475.017C1146.18 451.026 1166.79 439.03 1184.01 439.03C1204.31 439.03 1214.46 451.333 1214.46 475.939C1214.46 495.625 1208 518.385 1195.09 544.221C1182.78 570.058 1166.17 597.432 1145.26 626.344C1124.34 654.641 1100.97 682.939 1075.13 711.236C1049.29 738.918 1022.84 765.062 995.775 789.668C969.324 814.274 944.102 835.497 920.111 853.336C896.735 871.176 876.435 884.095 859.211 892.091C854.905 893.937 852.444 893.014 851.829 889.323C851.829 885.017 853.983 881.941 858.288 880.096C874.283 872.714 893.352 860.41 915.498 843.186C938.258 825.347 962.249 804.432 987.471 780.441C1013.31 755.835 1038.53 729.69 1063.13 702.008C1088.36 674.327 1111.12 646.645 1131.42 618.963C1151.72 590.666 1168.02 563.907 1180.32 538.685C1192.63 512.849 1198.78 490.395 1198.78 471.326C1198.78 464.559 1197.24 459.022 1194.16 454.716C1191.09 449.795 1187.09 447.335 1182.17 447.335C1172.33 447.335 1158.18 458.715 1139.72 481.476C1121.88 504.236 1100.35 535.609 1075.13 575.594C1049.91 614.964 1021.3 660.178 989.316 711.236C957.943 762.294 923.494 815.812 885.97 871.791C858.288 913.006 830.607 954.529 802.925 996.36C775.243 1038.81 750.021 1078.18 727.261 1114.47C703.884 1150.76 685.123 1181.21 670.974 1205.82C656.825 1231.04 649.751 1247.03 649.751 1253.8C649.751 1259.95 651.905 1264.26 656.21 1266.72C659.901 1269.18 664.207 1270.41 669.129 1270.41C680.201 1270.41 694.35 1261.18 711.574 1242.73C728.798 1224.27 746.33 1199.05 764.17 1167.07C781.394 1135.69 796.158 1100.01 808.461 1060.03C820.149 1020.04 825.993 978.52 825.993 935.46C825.993 928.693 827.838 924.387 831.529 922.541C834.605 920.696 836.143 922.233 836.143 927.155C836.143 972.677 830.914 1016.35 820.456 1058.18C809.999 1100.63 796.465 1138.46 779.856 1171.68C762.632 1204.9 744.178 1231.04 724.492 1250.11C704.192 1269.8 684.815 1279.64 666.36 1279.64ZM914.575 943.764C893.044 943.764 875.206 940.073 861.057 932.691C847.524 924.695 836.758 915.159 828.761 904.087C820.764 893.014 815.228 881.941 812.152 870.868C809.076 859.181 807.538 849.338 807.538 841.341C807.538 833.344 809.999 826.885 814.92 821.964C819.226 816.427 824.455 813.659 830.607 813.659C838.603 813.659 843.833 816.119 846.293 821.041C848.753 825.962 849.984 830.268 849.984 833.959C849.984 842.572 846.601 850.26 839.834 857.027C832.452 863.794 828.146 867.792 826.916 869.023C826.916 869.023 828.146 872.406 830.607 879.173C832.452 885.94 836.451 893.629 842.602 902.241C848.753 910.854 857.366 918.543 868.439 925.31C880.126 932.077 895.506 935.46 914.575 935.46C934.26 935.46 951.792 932.077 967.171 925.31C983.165 917.928 996.698 909.623 1007.77 900.396C1019.46 890.554 1028.69 881.326 1035.45 872.714C1042.83 864.101 1047.76 858.565 1050.22 856.105L1058.52 861.641C1056.68 864.101 1052.06 869.638 1044.68 878.25C1037.3 886.863 1027.46 896.397 1015.15 906.855C1002.85 916.697 988.086 925.31 970.862 932.691C954.253 940.073 935.49 943.764 914.575 943.764Z" fill="#A4DAF9"/>
</g>
</g>
<defs>
<linearGradient id="paint0_linear_36_2" x1="1383.76" y1="73.4556" x2="343.408" y2="1450.63" gradientUnits="userSpaceOnUse">
<stop stop-color="#6DBEEB"/>
<stop offset="1" stop-color="#2B4F5B"/>
</linearGradient>
<linearGradient id="paint1_linear_36_2" x1="1198.7" y1="316.658" x2="498.618" y2="1243.38" gradientUnits="userSpaceOnUse">
<stop stop-color="#6DBEEB"/>
<stop offset="1" stop-color="#2B4F5B"/>
</linearGradient>
<linearGradient id="paint2_linear_36_2" x1="594.035" y1="916.859" x2="516.33" y2="1108.2" gradientUnits="userSpaceOnUse">
<stop stop-color="#4BA69B"/>
<stop offset="1" stop-color="#1D403C"/>
</linearGradient>
<clipPath id="clip0_36_2">
<rect width="1635.41" height="1635.41" fill="white"/>
</clipPath>
<clipPath id="clip1_36_2">
<rect width="1636" height="1636" fill="white" transform="translate(0 -1)"/>
</clipPath>
</defs>
</svg>
