<svg width="2075" height="1080" viewBox="0 0 2075 1080" fill="none" xmlns="http://www.w3.org/2000/svg">
<g clip-path="url(#clip0_10_30)">
<g clip-path="url(#clip1_10_30)">
<path d="M535.171 278.813C525.285 335.075 493.019 369.631 462.087 403.252C434.408 433.001 408.41 461.175 405.342 499.926C399.469 569.289 392.16 646.819 375.23 741.836C342.622 927.411 301.66 1076.67 283.244 1073.67C264.828 1070.67 277.153 918.012 310.08 730.622C316.697 692.962 328.649 651.562 340.629 611.337C358.278 550.825 373.584 498.322 368.331 466.995C365.596 450.612 357.497 432.818 348.436 412.516C328.976 368.871 304.384 314.502 317.487 241.264C333.114 152.333 372.5 74.5924 418.11 42.6151C435.181 30.647 451.43 26.0183 467.044 28.9957C525.734 38.3731 556.989 153.316 535.171 278.813Z" fill="#2F877C"/>
</g>
<rect x="439.665" y="113.201" width="616.78" height="616.78" rx="157.5" transform="rotate(45 439.665 113.201)" stroke="#E3A0E9" stroke-opacity="0.75" stroke-width="5"/>
<rect x="136.167" y="596" width="192.57" height="192.57" rx="62" transform="rotate(45 136.167 596)" fill="url(#paint0_linear_10_30)"/>
<path d="M657.996 636.531C651.355 621.688 648.426 607.234 649.207 593.172C649.988 578.719 653.113 565.242 658.582 552.742C664.441 539.852 671.863 528.328 680.848 518.172C690.223 507.625 700.184 498.641 710.73 491.219C721.277 483.406 731.824 477.547 742.371 473.641C753.309 469.734 762.879 468.172 771.082 468.953C779.285 469.344 785.73 472.273 790.418 477.742C795.105 483.211 796.668 491.609 795.105 502.938C795.105 518.172 790.223 531.453 780.457 542.781C771.082 554.109 760.535 564.266 748.816 573.25C737.488 582.234 726.941 590.438 717.176 597.859C707.801 604.891 703.113 611.531 703.113 617.781C703.113 621.297 705.066 624.031 708.973 625.984C713.27 627.938 718.152 629.5 723.621 630.672C729.09 631.453 734.559 632.039 740.027 632.43C745.496 632.82 749.402 633.211 751.746 633.602C788.465 625.789 816.004 621.102 834.363 619.539C852.723 617.586 864.246 617.781 868.934 620.125C873.621 622.078 872.645 625.398 866.004 630.086C859.754 634.383 849.988 639.07 836.707 644.148C823.426 648.836 807.996 653.133 790.418 657.039C772.84 660.945 755.457 663.289 738.27 664.07C721.082 664.461 705.066 662.703 690.223 658.797C675.77 654.891 665.027 647.469 657.996 636.531ZM760.535 502.938C752.723 502.938 745.301 505.086 738.27 509.383C731.238 513.68 724.793 519.148 718.934 525.789C713.465 532.039 708.777 539.07 704.871 546.883C700.965 554.305 698.035 561.336 696.082 567.977C696.863 568.367 697.449 568.562 697.84 568.562H699.598C705.066 568.562 711.316 566.219 718.348 561.531C725.379 556.844 732.02 551.18 738.27 544.539C744.52 537.508 749.793 530.281 754.09 522.859C758.387 515.438 760.535 508.797 760.535 502.938ZM860.145 628.914C863.66 606.648 870.301 586.141 880.066 567.391C889.832 548.641 900.965 532.43 913.465 518.758C926.355 504.695 940.223 493.172 955.066 484.188C969.91 475.203 984.363 469.539 998.426 467.195C1012.49 464.461 1025.38 465.047 1037.1 468.953C1049.21 472.859 1058.97 480.672 1066.39 492.391C1066.39 501.375 1064.25 509.969 1059.95 518.172C1056.04 526.375 1051.55 534.578 1046.47 542.781C1041.79 550.984 1037.29 559.383 1033 567.977C1029.09 576.57 1027.14 585.75 1027.14 595.516C1027.14 605.672 1029.29 613.875 1033.58 620.125C1038.27 625.984 1046.28 628.914 1057.61 628.914C1066.98 628.914 1075.96 627.547 1084.56 624.812C1093.54 622.078 1102.53 620.711 1111.51 620.711C1113.07 620.711 1115.61 620.906 1119.13 621.297C1123.04 621.297 1125.57 621.297 1126.75 621.297C1122.06 627.938 1116 633.602 1108.58 638.289C1101.16 642.977 1093.35 647.078 1085.14 650.594C1076.94 653.719 1068.35 656.062 1059.36 657.625C1050.77 659.188 1042.76 659.969 1035.34 659.969C1028.31 659.969 1022.06 658.406 1016.59 655.281C1011.12 652.156 1006.43 648.055 1002.53 642.977C998.621 637.898 995.496 632.234 993.152 625.984C991.199 619.344 990.223 612.898 990.223 606.648C984.363 613.289 977.918 620.32 970.887 627.742C964.246 634.773 957.02 641.219 949.207 647.078C941.785 652.938 933.582 657.82 924.598 661.727C916.004 665.633 907.02 667.586 897.645 667.586C887.488 667.586 878.699 663.875 871.277 656.453C863.855 648.641 860.145 639.461 860.145 628.914ZM898.816 610.75C898.816 613.875 898.816 617.391 898.816 621.297C899.207 625.203 901.746 627.742 906.434 628.914C916.199 626.57 927.332 621.492 939.832 613.68C952.332 605.477 964.051 596.102 974.988 585.555C985.926 574.617 995.105 563.094 1002.53 550.984C1009.95 538.484 1013.66 526.57 1013.66 515.242C1013.66 514.461 1013.46 513.289 1013.07 511.727C1013.07 509.773 1013.07 508.406 1013.07 507.625C999.793 507.625 986.316 510.359 972.645 515.828C958.973 521.297 946.668 528.914 935.73 538.68C924.793 548.055 915.809 558.992 908.777 571.492C902.137 583.992 898.816 597.078 898.816 610.75ZM1109.75 601.961C1109.75 594.539 1110.73 588.094 1112.68 582.625C1115.03 577.156 1120.69 574.422 1129.68 574.422C1130.46 574.422 1132.21 574.617 1134.95 575.008C1138.07 575.008 1140.22 575.203 1141.39 575.594C1141 593.953 1143.93 607.82 1150.18 617.195C1156.43 626.18 1168.15 630.672 1185.34 630.672C1199.4 630.672 1213.27 628.523 1226.94 624.227C1240.61 619.93 1252.92 613.68 1263.86 605.477C1275.18 596.883 1284.17 586.531 1290.81 574.422C1297.84 562.312 1301.36 548.641 1301.36 533.406C1301.36 524.031 1298.04 517.391 1291.39 513.484C1285.14 509.578 1278.11 506.453 1270.3 504.109C1262.49 501.766 1255.26 499.227 1248.62 496.492C1242.37 493.367 1239.25 488.094 1239.25 480.672C1239.25 471.688 1244.71 463.094 1255.65 454.891C1266.59 446.688 1279.48 439.461 1294.32 433.211C1309.17 426.57 1323.82 421.492 1338.27 417.977C1353.11 414.07 1364.44 412.117 1372.25 412.117C1372.25 423.445 1369.71 431.453 1364.64 436.141C1359.95 440.828 1354.09 444.539 1347.06 447.273C1340.03 450.008 1332.8 452.742 1325.38 455.477C1318.35 457.82 1312.49 462.508 1307.8 469.539C1314.05 474.617 1319.13 479.305 1323.04 483.602C1327.33 487.508 1330.65 491.805 1333 496.492C1335.34 501.18 1336.9 506.453 1337.68 512.312C1338.46 517.781 1338.86 524.422 1338.86 532.234C1338.86 552.547 1334.36 571.102 1325.38 587.898C1316.79 604.305 1305.46 618.562 1291.39 630.672C1277.33 642.391 1261.32 651.57 1243.35 658.211C1225.38 664.461 1207.02 667.586 1188.27 667.586C1178.11 667.586 1168.15 666.414 1158.39 664.07C1149.01 661.336 1140.61 657.234 1133.19 651.766C1126.16 646.297 1120.5 639.461 1116.2 631.258C1111.9 623.055 1109.75 613.289 1109.75 601.961ZM1386.9 610.164C1386.9 598.836 1389.05 587.508 1393.35 576.18C1397.64 564.852 1402.72 553.719 1408.58 542.781C1414.44 531.453 1420.3 520.32 1426.16 509.383C1432.41 498.445 1437.1 487.703 1440.22 477.156C1432.8 481.453 1426.36 483.992 1420.89 484.773C1415.81 485.164 1409.56 485.359 1402.14 485.359C1401.36 485.359 1398.82 485.359 1394.52 485.359C1390.61 484.969 1388.07 484.773 1386.9 484.773C1389.25 476.18 1393.54 468.562 1399.79 461.922C1406.04 454.891 1413.07 449.031 1420.89 444.344C1429.09 439.266 1437.49 435.164 1446.08 432.039C1455.07 428.523 1463.07 425.789 1470.11 423.836C1481.82 405.477 1491.39 387.117 1498.82 368.758C1506.24 350.008 1513.66 331.844 1521.08 314.266C1528.89 296.297 1537.88 279.305 1548.04 263.289C1558.58 246.883 1572.64 231.844 1590.22 218.172L1593.15 240.438L1519.91 412.117C1524.21 410.945 1529.48 409.773 1535.73 408.602C1541.98 407.43 1548.23 406.258 1554.48 405.086C1561.12 403.914 1567.37 402.938 1573.23 402.156C1579.48 400.984 1584.75 399.812 1589.05 398.641C1589.44 398.641 1590.61 398.641 1592.57 398.641C1594.52 398.25 1596.08 398.055 1597.25 398.055C1602.72 398.055 1607.21 399.031 1610.73 400.984C1614.25 402.938 1617.18 407.234 1619.52 413.875C1592.96 421.688 1568.93 429.891 1547.45 438.484C1525.96 447.078 1507.21 458.406 1491.2 472.469C1475.57 486.141 1462.68 503.719 1452.53 525.203C1442.76 546.297 1435.93 573.445 1432.02 606.648C1432.02 613.68 1432.41 620.125 1433.19 625.984C1433.97 631.844 1438.86 635.359 1447.84 636.531C1456.82 636.531 1465.22 634.773 1473.04 631.258C1480.85 627.742 1488.46 624.031 1495.89 620.125C1503.31 615.828 1510.73 611.922 1518.15 608.406C1525.96 604.891 1534.36 603.133 1543.35 603.133C1543.35 612.508 1539.25 621.102 1531.04 628.914C1522.84 636.727 1512.88 643.562 1501.16 649.422C1489.83 655.281 1478.11 659.773 1466 662.898C1453.89 666.023 1443.93 667.586 1436.12 667.586C1428.31 667.586 1421.28 666.023 1415.03 662.898C1408.78 659.773 1403.5 655.672 1399.21 650.594C1395.3 645.125 1392.18 638.875 1389.83 631.844C1387.88 624.812 1386.9 617.586 1386.9 610.164ZM1541.59 613.68C1541.59 610.945 1541.79 606.844 1542.18 601.375C1542.96 595.516 1543.74 589.852 1544.52 584.383C1545.3 578.914 1546.08 574.031 1546.86 569.734C1547.64 565.047 1548.43 562.117 1549.21 560.945L1655.85 347.664C1657.41 344.539 1660.34 340.242 1664.64 334.773C1669.32 328.914 1674.21 323.055 1679.29 317.195C1684.75 310.945 1690.03 305.281 1695.11 300.203C1700.57 294.734 1705.07 290.438 1708.58 287.312C1711.32 288.094 1713.27 289.461 1714.44 291.414C1715.61 293.367 1716.39 295.711 1716.79 298.445C1717.18 300.789 1717.18 303.133 1716.79 305.477C1716.79 307.82 1716.79 309.773 1716.79 311.336C1716.79 313.289 1716.79 316.023 1716.79 319.539C1716.79 323.055 1716.59 324.812 1716.2 324.812C1712.29 335.359 1706.24 347.859 1698.04 362.312C1689.83 376.766 1680.65 392.195 1670.5 408.602C1660.34 425.008 1649.79 442.195 1638.86 460.164C1628.31 477.742 1618.54 495.32 1609.56 512.898C1600.96 530.086 1593.74 546.688 1587.88 562.703C1582.41 578.719 1579.68 593.367 1579.68 606.648C1579.68 613.68 1581.63 619.344 1585.54 623.641C1589.83 627.547 1594.32 631.062 1599.01 634.188C1603.7 637.312 1608 640.438 1611.9 643.562C1616.2 646.688 1618.35 650.984 1618.35 656.453C1618.35 659.969 1616.79 662.703 1613.66 664.656C1610.54 666.219 1606.82 667 1602.53 667C1586.12 667 1571.86 662.508 1559.75 653.523C1547.64 644.148 1541.59 630.867 1541.59 613.68ZM1655.85 843.953C1668.35 823.641 1682.8 805.477 1699.21 789.461C1715.61 773.836 1732.41 758.992 1749.6 744.93C1767.18 730.867 1784.56 717.195 1801.75 703.914C1818.93 690.633 1834.75 676.375 1849.21 661.141C1864.05 645.906 1876.75 629.109 1887.29 610.75C1897.84 592 1905.07 570.32 1908.97 545.711C1908.97 544.93 1908.78 543.758 1908.39 542.195C1908.39 540.242 1908.39 538.875 1908.39 538.094C1899.4 548.641 1888.46 560.555 1875.57 573.836C1863.07 587.117 1849.4 599.617 1834.56 611.336C1820.11 623.055 1804.87 632.82 1788.86 640.633C1772.84 648.445 1757.21 652.352 1741.98 652.352C1738.07 652.352 1733 652.156 1726.75 651.766C1720.89 650.984 1715.03 649.617 1709.17 647.664C1703.31 645.711 1698.23 642.977 1693.93 639.461C1689.64 635.945 1687.49 631.258 1687.49 625.398C1687.49 620.32 1688.86 612.508 1691.59 601.961C1694.32 591.414 1698.04 579.695 1702.72 566.805C1707.41 553.914 1712.68 540.828 1718.54 527.547C1724.4 514.266 1730.65 502.156 1737.29 491.219C1743.93 480.281 1750.38 471.297 1756.63 464.266C1763.27 457.234 1769.32 453.719 1774.79 453.719C1780.26 453.719 1784.95 454.891 1788.86 457.234C1792.76 459.578 1794.71 463.484 1794.71 468.953C1794.71 478.719 1791.2 488.484 1784.17 498.25C1777.14 508.016 1769.52 518.562 1761.32 529.891C1753.11 540.828 1745.5 552.742 1738.46 565.633C1731.43 578.523 1727.92 593.172 1727.92 609.578C1753.7 609.578 1776.94 604.305 1797.64 593.758C1818.35 582.82 1837.1 569.344 1853.89 553.328C1870.69 537.312 1885.54 519.93 1898.43 501.18C1911.32 482.43 1922.64 465.047 1932.41 449.031C1942.57 433.016 1951.16 419.734 1958.19 409.188C1965.61 398.25 1971.86 392.781 1976.94 392.781C1984.36 392.781 1988.66 395.125 1989.83 399.812C1991.39 404.109 1992.18 409.578 1992.18 416.219C1988.66 428.328 1983.78 442.586 1977.53 458.992C1971.28 475.008 1964.83 492 1958.19 509.969C1951.94 527.547 1946.08 545.125 1940.61 562.703C1935.54 580.281 1932.21 596.297 1930.65 610.75C1930.65 611.141 1930.65 611.727 1930.65 612.508C1931.04 613.289 1931.24 613.875 1931.24 614.266C1938.27 611.922 1944.91 607.82 1951.16 601.961C1957.41 596.102 1963.46 590.242 1969.32 584.383C1975.57 578.133 1981.82 572.664 1988.07 567.977C1994.32 562.898 2000.77 560.359 2007.41 560.359C2007.8 560.359 2009.17 563.094 2011.51 568.562C2014.25 574.031 2014.25 580.672 2011.51 588.484C2008 591.219 2001.55 595.906 1992.18 602.547C1983.19 609.188 1973.62 616.219 1963.46 623.641C1953.31 630.672 1943.74 637.703 1934.75 644.734C1925.77 651.375 1919.52 656.453 1916 659.969C1910.54 665.438 1904.87 673.25 1899.01 683.406C1893.15 693.562 1887.29 704.891 1881.43 717.391C1875.57 730.281 1869.71 743.758 1863.86 757.82C1858.39 771.883 1852.92 785.555 1847.45 798.836C1841.98 812.508 1836.51 825.008 1831.04 836.336C1825.96 848.055 1821.28 857.625 1816.98 865.047C1815.03 868.172 1810.93 874.227 1804.68 883.211C1798.82 892.586 1792.18 902.547 1784.75 913.094C1777.72 923.641 1770.69 933.602 1763.66 942.977C1757.02 952.742 1751.94 959.578 1748.43 963.484C1746.86 965.438 1742.57 969.93 1735.54 976.961C1728.5 984.383 1720.5 992.391 1711.51 1000.98C1702.92 1009.97 1694.32 1018.76 1685.73 1027.35C1676.75 1035.95 1669.91 1042.39 1665.22 1046.69C1660.54 1049.42 1654.29 1052.74 1646.47 1056.65C1638.66 1060.95 1630.65 1064.46 1622.45 1067.2C1613.86 1069.93 1605.65 1071.69 1597.84 1072.47C1589.64 1073.25 1583 1071.49 1577.92 1067.2C1572.84 1063.29 1569.91 1056.45 1569.13 1046.69C1567.96 1037.31 1570.11 1023.84 1575.57 1006.26C1580.65 989.07 1589.64 967.195 1602.53 940.633C1615.42 914.07 1633.19 881.844 1655.85 843.953ZM1839.83 717.977C1839.05 717.977 1837.68 718.172 1835.73 718.562C1834.17 719.344 1833 719.93 1832.21 720.32C1831.43 721.102 1829.68 722.469 1826.94 724.422C1824.21 726.375 1821.08 728.523 1817.57 730.867C1814.44 733.211 1811.32 735.555 1808.19 737.898C1805.46 740.242 1803.5 742 1802.33 743.172C1791.39 750.984 1778.89 761.922 1764.83 775.984C1750.77 790.438 1736.12 806.258 1720.89 823.445C1706.04 841.023 1691.39 859.383 1676.94 878.523C1662.49 898.055 1649.6 916.609 1638.27 934.188C1626.55 952.156 1617.18 968.562 1610.14 983.406C1603.11 998.25 1599.4 1010.16 1599.01 1019.15C1598.62 1028.13 1602.33 1033.41 1610.14 1034.97C1617.96 1036.53 1631.24 1032.82 1649.99 1023.84C1653.89 1020.32 1659.56 1015.05 1666.98 1008.02C1674.01 1001.38 1681.04 994.344 1688.07 986.922C1695.5 979.891 1702.14 973.25 1708 967C1713.86 961.141 1717.37 957.43 1718.54 955.867C1720.5 953.133 1723.62 948.836 1727.92 942.977C1732.21 937.117 1736.9 930.477 1741.98 923.055C1747.06 915.633 1752.33 907.82 1757.8 899.617C1763.27 891.414 1768.35 883.406 1773.04 875.594C1778.11 868.172 1782.41 861.531 1785.93 855.672C1789.83 849.812 1792.57 845.32 1794.13 842.195C1797.64 835.945 1801.94 826.961 1807.02 815.242C1812.49 803.914 1817.57 792 1822.25 779.5C1826.94 767.391 1831.04 755.672 1834.56 744.344C1838.07 733.016 1839.83 724.227 1839.83 717.977Z" fill="url(#paint1_linear_10_30)"/>
<path d="M247.463 1005.5C235.43 1005.5 225.93 1001.7 218.963 994.1C211.996 987.133 208.513 977.633 208.513 965.6C208.513 944.7 219.28 915.25 240.813 877.25C262.346 839.883 290.846 794.917 326.313 742.35C361.146 689.783 399.146 631.833 440.313 568.5C474.513 515.933 508.08 464.317 541.013 413.65C573.946 362.35 605.296 316.117 635.063 274.95C664.83 233.783 692.063 201.167 716.763 177.1C741.463 152.4 762.68 140.05 780.413 140.05C801.313 140.05 811.763 152.717 811.763 178.05C811.763 198.317 805.113 221.75 791.813 248.35C779.146 274.95 762.046 303.133 740.513 332.9C718.98 362.033 694.913 391.167 668.313 420.3C641.713 448.8 614.48 475.717 586.613 501.05C559.38 526.383 533.413 548.233 508.713 566.6C484.646 584.967 463.746 598.267 446.013 606.5C441.58 608.4 439.046 607.45 438.413 603.65C438.413 599.217 440.63 596.05 445.063 594.15C461.53 586.55 481.163 573.883 503.963 556.15C527.396 537.783 552.096 516.25 578.063 491.55C604.663 466.217 630.63 439.3 655.963 410.8C681.93 382.3 705.363 353.8 726.263 325.3C747.163 296.167 763.946 268.617 776.613 242.65C789.28 216.05 795.613 192.933 795.613 173.3C795.613 166.333 794.03 160.633 790.863 156.2C787.696 151.133 783.58 148.6 778.513 148.6C768.38 148.6 753.813 160.317 734.813 183.75C716.446 207.183 694.28 239.483 668.313 280.65C642.346 321.183 612.896 367.733 579.963 420.3C547.663 472.867 512.196 527.967 473.563 585.6C445.063 628.033 416.563 670.783 388.063 713.85C359.563 757.55 333.596 798.083 310.163 835.45C286.096 872.817 266.78 904.167 252.213 929.5C237.646 955.467 230.363 971.933 230.363 978.9C230.363 985.233 232.58 989.667 237.013 992.2C240.813 994.733 245.246 996 250.313 996C261.713 996 276.28 986.5 294.013 967.5C311.746 948.5 329.796 922.533 348.163 889.6C365.896 857.3 381.096 820.567 393.763 779.4C405.796 738.233 411.813 695.483 411.813 651.15C411.813 644.183 413.713 639.75 417.513 637.85C420.68 635.95 422.263 637.533 422.263 642.6C422.263 689.467 416.88 734.433 406.113 777.5C395.346 821.2 381.413 860.15 364.313 894.35C346.58 928.55 327.58 955.467 307.313 975.1C286.413 995.367 266.463 1005.5 247.463 1005.5ZM503.013 659.7C480.846 659.7 462.48 655.9 447.913 648.3C433.98 640.067 422.896 630.25 414.663 618.85C406.43 607.45 400.73 596.05 397.563 584.65C394.396 572.617 392.813 562.483 392.813 554.25C392.813 546.017 395.346 539.367 400.413 534.3C404.846 528.6 410.23 525.75 416.563 525.75C424.796 525.75 430.18 528.283 432.713 533.35C435.246 538.417 436.513 542.85 436.513 546.65C436.513 555.517 433.03 563.433 426.063 570.4C418.463 577.367 414.03 581.483 412.763 582.75C412.763 582.75 414.03 586.233 416.563 593.2C418.463 600.167 422.58 608.083 428.913 616.95C435.246 625.817 444.113 633.733 455.513 640.7C467.546 647.667 483.38 651.15 503.013 651.15C523.28 651.15 541.33 647.667 557.163 640.7C573.63 633.1 587.563 624.55 598.963 615.05C610.996 604.917 620.496 595.417 627.463 586.55C635.063 577.683 640.13 571.983 642.663 569.45L651.213 575.15C649.313 577.683 644.563 583.383 636.963 592.25C629.363 601.117 619.23 610.933 606.563 621.7C593.896 631.833 578.696 640.7 560.963 648.3C543.863 655.9 524.546 659.7 503.013 659.7Z" fill="#A4DAF9"/>
</g>
<defs>
<linearGradient id="paint0_linear_10_30" x1="187.668" y1="595.411" x2="270.399" y2="791.28" gradientUnits="userSpaceOnUse">
<stop stop-color="#4BA69B"/>
<stop offset="1" stop-color="#1D403C"/>
</linearGradient>
<linearGradient id="paint1_linear_10_30" x1="706.473" y1="576.449" x2="2075" y2="576.449" gradientUnits="userSpaceOnUse">
<stop stop-color="#A4DAF9"/>
<stop offset="1" stop-color="#618193"/>
</linearGradient>
<clipPath id="clip0_10_30">
<rect width="2075" height="1080" fill="white"/>
</clipPath>
<clipPath id="clip1_10_30">
<rect width="833.924" height="833.924" fill="white" transform="translate(-203.958 437.766) rotate(-35.034)"/>
</clipPath>
</defs>
</svg>
